<?xml version="1.0" encoding="UTF-8"?>
<svg id="Camada_1" xmlns="http://www.w3.org/2000/svg" version="1.1" xmlns:xlink="http://www.w3.org/1999/xlink" viewBox="0 0 100 60">
  <!-- Generator: Adobe Illustrator 29.1.0, SVG Export Plug-In . SVG Version: 2.1.0 Build 142)  -->
  <defs>
    <style>
      .st0 {
        fill: #1c1c1b;
      }

      .st1, .st2 {
        fill: #fff;
      }

      .st2, .st3, .st4, .st5, .st6 {
        fill-rule: evenodd;
      }

      .st7 {
        fill: #3c3c3a;
      }

      .st3 {
        fill: url(#linear-gradient1);
      }

      .st4 {
        fill: url(#linear-gradient3);
      }

      .st5 {
        fill: url(#linear-gradient);
      }

      .st8 {
        fill: url(#Gradiente_sem_nome_14);
      }

      .st6 {
        fill: url(#linear-gradient2);
      }
    </style>
    <radialGradient id="Gradiente_sem_nome_14" data-name="Gradiente sem nome 14" cx="16.9" cy="21" fx="16.9" fy="21" r="25.3" gradientUnits="userSpaceOnUse">
      <stop offset="0" stop-color="#74c1e5"/>
      <stop offset=".7" stop-color="#035d96"/>
      <stop offset="1" stop-color="#0d3451"/>
    </radialGradient>
    <linearGradient id="linear-gradient" x1="83.6" y1="43.6" x2="83.6" y2="5.4" gradientUnits="userSpaceOnUse">
      <stop offset="0" stop-color="#911309"/>
      <stop offset="1" stop-color="#cf0a11"/>
    </linearGradient>
    <linearGradient id="linear-gradient1" x1="83.6" y1="42.6" x2="83.6" y2="24.2" gradientUnits="userSpaceOnUse">
      <stop offset="0" stop-color="#db3315"/>
      <stop offset="1" stop-color="#b41918"/>
    </linearGradient>
    <linearGradient id="linear-gradient2" x1="52.7" y1="43.6" x2="52.7" y2="5.4" gradientUnits="userSpaceOnUse">
      <stop offset="0" stop-color="#911309"/>
      <stop offset="1" stop-color="#cf0a11"/>
    </linearGradient>
    <linearGradient id="linear-gradient3" x1="52.7" y1="27.3" x2="52.7" y2="42.6" gradientUnits="userSpaceOnUse">
      <stop offset="0" stop-color="#b41918"/>
      <stop offset="1" stop-color="#db3315"/>
    </linearGradient>
  </defs>
  <g>
    <g>
      <circle class="st8" cx="21.9" cy="24.4" r="19.1"/>
      <path class="st1" d="M9.9,27.7l-.2-.3-.2.3h-.4s.3.3.3.3v.4c0,0,.3-.2.3-.2l.3.2v-.4c0,0,.2-.3.2-.3h-.4ZM12.1,30.6l-.3-.5-.2.5h-.6c0,0,.4.5.4.5v.6c0,0,.4-.3.4-.3l.5.3v-.6c-.1,0,.3-.4.3-.4h-.6ZM11.4,32.7l-.2-.5-.2.5h-.5c0,0,.4.4.4.4v.5c0,0,.4-.2.4-.2l.4.2v-.5c0,0,.3-.4.3-.4h-.5ZM19.7,29.3l-.2-.5-.2.5h-.5c0,0,.4.4.4.4v.5c0,0,.4-.2.4-.2l.5.2v-.5c0,0,.3-.4.3-.4h-.5ZM14.8,24.8l-.3-.5-.3.6h-.6c0,.1.4.5.4.5v.6c0,0,.4-.3.4-.3l.5.3v-.6c-.1,0,.3-.4.3-.4h-.6ZM14.3,34.6l-.3-.6-.3.6h-.7c0,.1.5.6.5.6v.7c-.1,0,.5-.3.5-.3l.6.3v-.7c-.1,0,.4-.5.4-.5h-.7ZM21.6,28.5l.5-.3.5.3v-.6c-.1,0,.3-.4.3-.4h-.6c0,0-.3-.6-.3-.6l-.3.5h-.6c0,0,.4.5.4.5v.6ZM26,23.9l.5-.2.5.2v-.5c0,0,.3-.4.3-.4h-.5c0,0-.2-.5-.2-.5l-.2.5h-.5c0,0,.4.4.4.4v.5ZM8.3,28.8l-.3-.6-.3.6h-.7c0,.1.5.6.5.6v.7c-.1,0,.5-.3.5-.3l.6.3v-.7c-.1,0,.4-.5.4-.5h-.7ZM31,35.9l.4-.2.4.2v-.5c0,0,.3-.3.3-.3h-.5c0,0-.2-.5-.2-.5l-.2.4h-.5c0,0,.4.4.4.4v.5ZM21.1,30.7l.3-.3h-.4c0,0-.2-.4-.2-.4l-.2.3h-.4s.3.3.3.3v.4c0,0,.3-.2.3-.2l.3.2v-.4ZM6.3,30.5l-.3-.5-.3.5h-.6c0,0,.4.5.4.5v.6c0,0,.4-.3.4-.3l.5.3v-.6c-.1,0,.3-.4.3-.4h-.6ZM5.8,22.2l.7-.3.7.3v-.7c-.1,0,.4-.5.4-.5h-.7c0-.1-.3-.8-.3-.8l-.3.7h-.7c0,.1.5.6.5.6v.7ZM31.6,36.3l-.3.5h-.6c0,0,.4.5.4.5v.6c-.1,0,.4-.3.4-.3l.5.3v-.6c0,0,.3-.4.3-.4h-.6c0,0-.3-.6-.3-.6ZM34.7,32l.6-.3.6.3v-.7c-.1,0,.4-.5.4-.5h-.7c0,0-.3-.7-.3-.7l-.3.6h-.7c0,.1.5.6.5.6v.7ZM33.6,35l-.2-.4-.2.4h-.5c0,0,.3.4.3.4v.5c0,0,.3-.2.3-.2l.4.2v-.5c0,0,.2-.3.2-.3h-.5ZM35.4,34.2l-.2-.5-.3.5h-.6c0,0,.4.5.4.5v.6c-.1,0,.4-.3.4-.3l.5.3v-.6c0,0,.3-.4.3-.4h-.6ZM22.2,39.4v-.3c-.1,0-.3.3-.3.3h-.3c0,0,.2.3.2.3v.3s.2-.2.2-.2h.3c0,.1,0-.2,0-.2l.2-.2h-.3ZM31.7,38.9l-.2-.4-.2.5h-.5c0,0,.4.4.4.4v.5c0,0,.4-.2.4-.2l.4.2v-.5c0,0,.3-.4.3-.4h-.5ZM38.8,31h-.5c0,0-.2-.5-.2-.5l-.2.4h-.5c0,0,.4.4.4.4v.5c0,0,.4-.2.4-.2l.4.2v-.5c0,0,.2-.3.2-.3ZM36.3,32.7l-.2-.5-.3.5h-.6c0,0,.4.5.4.5v.5c-.1,0,.4-.3.4-.3l.5.3v-.5c0,0,.3-.4.3-.4h-.5ZM29.5,35.4l-.2-.4-.2.4h-.5c0,0,.4.4.4.4v.5c0,0,.4-.2.4-.2l.4.2v-.5c0,0,.3-.4.3-.4h-.5ZM24.1,29l-.3-.5-.3.6h-.6c0,0,.4.5.4.5v.6c0,0,.4-.3.4-.3l.5.3v-.6c-.1,0,.3-.4.3-.4h-.6ZM22.3,32.9l-.3-.6-.3.6h-.7c0,.1.5.6.5.6v.7c-.1,0,.5-.3.5-.3l.6.3v-.7c-.1,0,.4-.5.4-.5h-.7ZM26.2,35l-.2-.4-.2.4h-.5c0,0,.4.4.4.4v.5c0,0,.4-.2.4-.2l.4.2v-.5c0,0,.3-.3.3-.3h-.5ZM27.8,37.2l-.3-.5-.2.5h-.6c0,0,.4.5.4.5v.6c0,0,.4-.3.4-.3l.5.3v-.6c-.1,0,.3-.4.3-.4h-.6ZM28.9,17.4h-.7c0,0-.3-.8-.3-.8l-.3.7h-.7c0,.1.5.6.5.6v.7c-.1,0,.5-.4.5-.4l.7.3v-.7c-.1,0,.4-.5.4-.5Z"/>
      <path class="st2" d="M4.7,16.2c-.4.9-.8,1.8-1.1,2.8,13.5-1.8,26.2,2,36.7,10.6.3-1,.5-1.9.6-3-12.1-9.3-23.3-11.7-36.2-10.4Z"/>
      <path class="st0" d="M16.6,17.4c0,0,.1,0,.2,0,0,0,.1,0,.2,0,0,0,0,0,0,.2h.3c0-.1,0-.2,0-.3,0,0-.2-.1-.4-.2-.1,0-.2,0-.3,0,0,0-.1,0-.2.1,0,0,0,.1,0,.2,0,.1,0,.2,0,.3,0,0,.2.1.3.2.1,0,.2,0,.2,0,0,0,0,0,0,0,0,0,0,0,0,0,0,0,0,0,0,.1,0,0-.1,0-.2,0,0,0-.2,0-.2,0,0,0,0-.1,0-.2h-.3c0,.1,0,.3.1.4,0,0,.2.2.4.2.1,0,.2,0,.3,0,0,0,.2,0,.2-.1,0,0,0-.1,0-.2,0,0,0-.2,0-.2,0,0,0-.1-.1-.2,0,0-.2,0-.3-.1-.1,0-.2,0-.2-.1,0,0,0,0,0,0,0,0,0,0,0,0ZM15.3,16.9c-.1,0-.2,0-.3,0,0,0-.1,0-.2.1,0,0-.1.1-.1.2,0,0,0,.2,0,.4,0,.2,0,.4.1.5.1.1.3.2.5.2.2,0,.4,0,.5-.2.1-.1.2-.3.2-.5,0-.2,0-.4-.1-.5-.1-.1-.3-.2-.5-.2ZM15.5,18c0,0-.2.1-.3,0-.1,0-.2,0-.3-.1,0,0,0-.2,0-.4,0-.2,0-.3.1-.4,0,0,.2-.1.3,0,.1,0,.2,0,.3.1,0,0,0,.2,0,.4,0,.2,0,.3-.1.4ZM11.7,17.6l-.2-1h-.4s0,1.4,0,1.4h.3s0-1.1,0-1.1l.2,1.1h.3s.3-1.1.3-1.1v1.1c0,0,.2,0,.2,0v-1.4c0,0-.4,0-.4,0l-.3.9ZM5.9,16.7c-.1,0-.2,0-.3,0,0,0-.1,0-.2.1,0,0,0,.1-.1.2,0,0,0,.2,0,.4,0,.2,0,.4.2.5.1.1.3.2.5.2.2,0,.4,0,.5-.2.1-.1.2-.3.2-.5,0-.2,0-.4-.2-.5-.1-.1-.3-.2-.5-.2ZM6.2,17.7c0,0-.2.1-.3.1-.1,0-.2,0-.3-.1,0,0-.1-.2-.1-.4,0-.2,0-.3,0-.4,0,0,.2-.1.3-.1.1,0,.2,0,.3.1,0,0,.1.2.1.4,0,.2,0,.3,0,.4ZM7.8,17.5s0,0-.2-.1c.1,0,.2,0,.3-.1,0,0,0-.2,0-.3,0,0,0-.2,0-.2,0,0,0-.1-.2-.1,0,0-.2,0-.3,0h-.6s0,1.4,0,1.4h.3s0-.6,0-.6h0c0,0,.1,0,.1,0,0,0,0,0,0,0,0,0,0,0,.2.2l.2.3h.3s-.2-.3-.2-.3c0-.1-.1-.2-.2-.2ZM7.3,17.2h-.2s0-.4,0-.4h.2c.1,0,.2,0,.2,0,0,0,0,0,.1,0,0,0,0,0,0,.1,0,0,0,0,0,.1,0,0,0,0,0,0,0,0-.1,0-.3,0ZM9.3,16.8c0,0-.1-.1-.2-.1,0,0-.2,0-.3,0h-.5s0,1.4,0,1.4h.5c.1,0,.2,0,.3,0,0,0,.2,0,.2-.1,0,0,.1-.1.2-.2,0,0,0-.2,0-.3,0-.1,0-.2,0-.3,0,0,0-.2-.1-.2ZM9.1,17.6c0,0,0,.1,0,.1,0,0,0,0-.1,0,0,0,0,0-.2,0h-.2s0-.9,0-.9h.1c.1,0,.2,0,.2,0,0,0,0,0,.1,0,0,0,0,0,0,.1,0,0,0,.1,0,.3,0,.1,0,.2,0,.3ZM10,17.4h.7s0-.2,0-.2h-.7s0-.3,0-.3h.8s0-.2,0-.2h-1s0,1.4,0,1.4h1.1s0-.2,0-.2h-.8s0-.4,0-.4ZM14.3,17c0,0-.1-.1-.2-.1,0,0-.1,0-.3,0h-.5s0,1.4,0,1.4h.5c.1,0,.2,0,.3,0,0,0,.2,0,.2,0,0,0,.1-.1.2-.2,0,0,0-.2,0-.3,0-.1,0-.2,0-.3,0,0,0-.2-.1-.2ZM14.1,17.5c0,.1,0,.2,0,.3,0,0,0,.1,0,.1,0,0,0,0-.1,0,0,0,0,0-.2,0h-.2s0-.9,0-.9h.1c.1,0,.2,0,.2,0,0,0,0,0,.1,0,0,0,0,0,0,.1,0,0,0,.1,0,.3ZM18.5,17.4l-.8,1.3h.3s.2-.3.2-.3h.6c0,0,0,.4,0,.4h.3s-.3-1.4-.3-1.4h-.3ZM18.3,18.2l.3-.5v.5c.1,0-.3,0-.3,0ZM35,24.3c0,0,0-.1-.1-.2,0,0,.1,0,.2,0,0,0,.1,0,.1-.1,0,0,0-.1,0-.2,0,0,0-.1,0-.2,0,0,0,0,0-.1,0,0-.1,0-.2-.1l-.5-.3-.7,1.2.4.2c.2,0,.3.1.3.2,0,0,.1,0,.2,0,0,0,.1,0,.2,0,0,0,.1,0,.1-.1,0,0,0-.1,0-.2ZM34.7,24.4s0,0,0,0c0,0,0,0-.1,0,0,0,0,0-.2,0h-.2c0-.1.2-.5.2-.5h.2c.1.2.2.2.2.3,0,0,0,0,0,.1,0,0,0,0,0,.1ZM34.9,23.9s0,0-.1,0c0,0,0,0-.2-.1h-.2c0,0,.2-.4.2-.4h.1c.1.2.2.2.2.2,0,0,0,0,0,0,0,0,0,0,0,.1,0,0,0,0,0,0ZM37.3,24.8l-1.2.9.3.2.3-.2.5.3v.3c0,0,.2.2.2.2l.3-1.5-.2-.2ZM37.1,25.7l-.3-.2.4-.3v.5ZM32.1,22c0,0,0-.2-.1-.2,0,0-.1,0-.2-.1l-.5-.2-.6,1.3.5.2c0,0,.2,0,.2,0,0,0,.2,0,.2,0,0,0,.2,0,.2-.2,0,0,.1-.1.2-.3,0-.1,0-.2.1-.3,0,0,0-.2,0-.3ZM31.8,22.2c0,0,0,.1,0,.2,0,0,0,.2-.1.2,0,0,0,0-.1,0,0,0,0,0-.1,0,0,0,0,0-.2,0h-.2c0,0,.4-.9.4-.9h.1c.1.1.2.1.2.2,0,0,0,0,0,.1,0,0,0,0,0,.2ZM33.1,22.3c-.1,0-.2,0-.3,0,0,0-.1,0-.2,0,0,0-.1,0-.2.1,0,0-.2.2-.2.3-.1.2-.1.4,0,.6,0,.2.2.3.4.4.2,0,.4.1.5,0,.2,0,.3-.2.4-.4.1-.2.1-.4,0-.6,0-.2-.2-.3-.4-.4ZM33.1,23.1c0,.1-.2.2-.3.3-.1,0-.2,0-.3,0-.1,0-.2-.1-.2-.2,0-.1,0-.2,0-.4,0-.1.2-.2.3-.3.1,0,.2,0,.3,0,.1,0,.2.1.2.2,0,.1,0,.2,0,.4ZM36,25.4c0-.1,0-.2,0-.3,0,0,0-.1,0-.2.1,0,.2,0,.3,0,0,0,.2,0,.2-.2,0,0,0-.1,0-.2,0,0,0-.1,0-.2,0,0-.1-.1-.3-.2l-.5-.3-.7,1.2h.2c0,.1.3-.3.3-.3h0c0,0,0,0,.1.1,0,0,0,0,0,0,0,0,0,.1,0,.3v.4s.3.2.3.2v-.3ZM35.6,24.5l.2-.3h.2c0,.2.2.2.2.2,0,0,0,0,0,.1,0,0,0,0,0,.1,0,0,0,0,0,0,0,0,0,0,0,0,0,0-.1,0-.2-.1h-.2ZM38.5,26.7c0,0,0-.1,0-.2,0,0,0-.2-.2-.3,0-.1-.1-.2-.2-.2,0,0,0,0,0,0,0,0,0,0,0,0,0,0,.1,0,.2,0,0,0,.1,0,.1.1,0,0,0,.1,0,.2l.2.2c0-.1,0-.2,0-.3,0-.1-.1-.2-.3-.3,0,0-.2-.1-.3-.1,0,0-.2,0-.2,0,0,0-.1,0-.2.1,0,0,0,.2,0,.3,0,0,0,.2.2.3,0,0,.1.2.1.2,0,0,0,0,0,.1,0,0,0,0,0,0,0,0,0,0-.1,0,0,0-.1,0-.2,0,0,0-.1-.1-.1-.2,0,0,0-.1,0-.2h-.2c0,0-.1.1,0,.3,0,.1.1.2.3.3,0,0,.2.1.3.1,0,0,.2,0,.2,0,0,0,.1,0,.2-.1,0,0,0-.1,0-.2ZM39.9,26.8l-.2-.2-.8,1.1.8.6v-.2c.1,0-.4-.4-.4-.4l.7-.9ZM39.2,26.2l-.8,1.1.2.2.8-1.1-.2-.2ZM27.4,19.8c0,0-.1,0-.2-.1l-.5-.2-.5,1.3.5.2c0,0,.2,0,.2,0,0,0,.2,0,.2,0,0,0,.2,0,.2-.2,0,0,.1-.2.1-.3,0-.1,0-.2,0-.3,0,0,0-.2,0-.3,0,0,0-.1-.2-.2ZM27.3,20.5c0,.1,0,.2-.1.2,0,0,0,0-.1.1,0,0,0,0-.1,0,0,0,0,0-.2,0h-.2c0,0,.3-.9.3-.9h.1c.1,0,.2.1.2.1,0,0,0,0,.1.1,0,0,0,0,0,.2,0,0,0,.1,0,.2ZM30,20.8c0,0-.2,0-.3,0,0,0-.2,0-.2,0,0,0-.1,0-.1.2,0,.1,0,.2,0,.3,0,0,.1.2.2.3,0,0,.2.1.2.1,0,0,0,0,0,0,0,0,0,0,0,0,0,0,0,0-.1,0,0,0-.1,0-.2,0,0,0-.1,0-.2-.1,0,0,0-.1,0-.2h-.3c0,0,0,.2,0,.3,0,.1.2.2.3.3.1,0,.2,0,.3,0,0,0,.2,0,.2,0,0,0,.1-.1.2-.2,0,0,0-.2,0-.2,0,0,0-.1,0-.2,0,0-.1-.1-.2-.2-.1,0-.2-.1-.2-.2,0,0,0,0,0,0,0,0,0,0,0,0,0,0,.1,0,.2,0,0,0,.1,0,.1.1,0,0,0,.1,0,.2h.3s0-.1,0-.2c0-.1-.2-.2-.3-.3ZM21.8,18l-.5.9v-1.1c-.1,0-.4,0-.4,0l.2,1.5h.3c0,0,.8-1.2.8-1.2h-.3ZM24.2,19.4v.2c0,0,.2,0,.2,0v.2c0,0-.2,0-.2,0,0,0-.1,0-.2,0-.1,0-.2,0-.2-.2,0-.1,0-.2,0-.4,0-.1.1-.3.2-.3,0,0,.2,0,.3,0,0,0,.1,0,.2.1,0,0,0,.1,0,.2h.3c0-.1,0-.2,0-.3,0,0-.2-.2-.4-.2-.1,0-.2,0-.3,0-.1,0-.2,0-.3.2,0,0-.2.2-.2.4,0,.1,0,.3,0,.4,0,.1,0,.2.2.3s.2.2.3.2c.1,0,.2,0,.3,0,.1,0,.2,0,.3,0l.2-.5-.6-.2ZM22.9,18.3c-.1,0-.2,0-.3,0,0,0-.1,0-.2,0,0,0-.1,0-.2.2,0,0-.1.2-.2.3,0,.2,0,.4,0,.6,0,.2.2.3.4.3.2,0,.4,0,.5,0,.2,0,.3-.2.3-.5,0-.2,0-.4,0-.6,0-.2-.2-.3-.4-.3ZM23.1,19.1c0,.2-.1.3-.2.3,0,0-.2,0-.3,0-.1,0-.2,0-.2-.2,0,0,0-.2,0-.4,0-.2.1-.3.2-.3,0,0,.2,0,.3,0,.1,0,.2,0,.2.2,0,0,0,.2,0,.4ZM29,20.6c0-.2-.2-.3-.4-.4-.1,0-.2,0-.3,0,0,0-.1,0-.2,0,0,0-.1,0-.2.1,0,0-.1.2-.2.3,0,.2,0,.4,0,.6,0,.2.2.3.4.4.2,0,.4,0,.5,0,.2,0,.3-.2.4-.4,0-.2,0-.4,0-.6ZM28.7,21c0,.2-.1.3-.2.3,0,0-.2,0-.3,0-.1,0-.2-.1-.2-.2,0-.1,0-.2,0-.4,0-.2.1-.3.2-.3,0,0,.2,0,.3,0,.1,0,.2.1.2.2,0,0,0,.2,0,.4ZM20.5,17.9c0,0-.1-.1-.2-.2,0,0-.1,0-.3,0h-.5c0,0-.3,1.3-.3,1.3h.5c.1.1.2.1.3.1,0,0,.2,0,.2,0,0,0,.1-.1.2-.2,0,0,0-.2,0-.3,0-.1,0-.2,0-.3,0,0,0-.2,0-.2ZM20.3,18.4c0,.1,0,.2,0,.2,0,0,0,0,0,.1,0,0,0,0-.1,0,0,0,0,0-.2,0h-.2s.2-1,.2-1h.1c.1,0,.2,0,.2,0,0,0,0,0,.1,0,0,0,0,0,0,.1,0,0,0,.1,0,.3ZM25.7,19.2l-1,1.2h.3c0,0,.2-.2.2-.2l.5.2v.3s.3,0,.3,0v-1.5c-.1,0-.4,0-.4,0ZM25.4,20l.3-.4v.6s-.3-.1-.3-.1Z"/>
    </g>
    <g>
      <path class="st5" d="M70,5.4h13.6s7.2,3.1,7.2,10-2.4,6.3-2.4,6.3c0,0,8.8,3,8.8,10.9s-9.1,11-9.1,11h-18.1V5.4Z"/>
      <path class="st3" d="M92.2,24.9c-.4-.3-.7-.6-1.1-.8,0,0-8.5,2.8-20.1,3.3v15.2h16.9c.5-.2,2.3-.9,4.1-2.3,2.8-2.1,4.2-4.7,4.2-7.8s-1.3-5.5-4-7.6Z"/>
    </g>
    <g>
      <polygon class="st6" points="68.9 43.6 52.7 5.4 36.5 43.6 68.9 43.6"/>
      <path class="st4" d="M67.3,42.6h-29.1l6.3-15.3s3.5.3,8.4.3,8.3-.1,8.3-.1l6.2,15.2Z"/>
    </g>
  </g>
  <g>
    <path class="st7" d="M18.3,52.9v-.3c0,0,0-.1.1-.1h1.1c0,0,.1,0,.1.1v.2c0,.4.4.8.9.8s.8-.3.8-.7-.4-.6-1.2-1c-.9-.4-1.9-.9-1.9-2.1s.9-1.8,2.1-1.8,2.2.8,2.2,1.9v.2c0,0,0,.1-.1.1h-1.1c0,0-.1,0-.1-.1v-.2c0-.4-.3-.8-.9-.8s-.8.2-.8.7.3.6,1.2,1.1c.9.5,1.8.9,1.8,2s-.9,1.8-2.2,1.8-2.2-.7-2.2-1.8Z"/>
    <path class="st7" d="M26.7,54.5l-.2-.9s0,0,0,0h-1.8s0,0,0,0l-.2.9c0,0,0,0-.1,0h-1.2c0,0-.1,0,0-.1l1.8-6.3c0,0,0,0,.1,0h1.4c0,0,.1,0,.1,0l1.8,6.3c0,0,0,.1,0,.1h-1.2c0,0-.1,0-.1,0ZM24.9,52.6h1.3s0,0,0,0l-.7-2.7s0,0,0,0l-.7,2.7s0,0,0,0Z"/>
    <path class="st7" d="M28.6,54.5v-6.3c0,0,0-.1.1-.1h1.2c0,0,.1,0,.1,0l1.9,3.7s0,0,0,0v-3.7c0,0,0-.1.1-.1h1.1c0,0,.1,0,.1.1v6.3c0,0,0,.1-.1.1h-1.2c0,0-.1,0-.1,0l-1.9-3.8s0,0,0,0v3.7c0,0,0,.1,0,.1h-1.1c0,0-.1,0-.1-.1Z"/>
    <path class="st7" d="M38.4,48.2v.9c0,0,0,.1-.1.1h-1.5s0,0,0,0v5.2c0,0,0,.1-.1.1h-1.1c0,0-.1,0-.1-.1v-5.2s0,0,0,0h-1.4c0,0-.1,0-.1-.1v-.9c0,0,0-.1.1-.1h4.4c0,0,.1,0,.1.1Z"/>
    <path class="st7" d="M41.8,54.5l-.2-.9s0,0,0,0h-1.8s0,0,0,0l-.2.9c0,0,0,0-.1,0h-1.2c0,0-.1,0,0-.1l1.8-6.3c0,0,0,0,.1,0h1.4c0,0,.1,0,.1,0l1.8,6.3c0,0,0,.1,0,.1h-1.2c0,0-.1,0-.1,0ZM40,52.6h1.3s0,0,0,0l-.7-2.7s0,0,0,0l-.7,2.7s0,0,0,0Z"/>
    <path class="st7" d="M45.3,52.6v-2.6c0-1.2.9-2,2.2-2s2.2.8,2.2,2h0c0,.1,0,.2-.1.2h-1.1c0,0-.1,0-.1,0h0c0-.6-.3-1-.9-1s-.9.3-.9.8v2.7c0,.5.3.8.9.8s.9-.3.9-.8h0c0-.2,0-.2.1-.2h1.1c0,0,.1,0,.1.1h0c0,1.3-.9,2.1-2.2,2.1s-2.2-.8-2.2-2.1Z"/>
    <path class="st7" d="M53.7,54.5l-.2-.9s0,0,0,0h-1.8s0,0,0,0l-.2.9c0,0,0,0-.1,0h-1.2c0,0-.1,0,0-.1l1.8-6.3c0,0,0,0,.1,0h1.4c0,0,.1,0,.1,0l1.8,6.3c0,0,0,.1,0,.1h-1.2c0,0-.1,0-.1,0ZM51.9,52.6h1.3s0,0,0,0l-.7-2.7s0,0,0,0l-.7,2.7s0,0,0,0Z"/>
    <path class="st7" d="M59.2,48.2v.9c0,0,0,.1-.1.1h-1.5s0,0,0,0v5.2c0,0,0,.1-.1.1h-1.1c0,0-.1,0-.1-.1v-5.2s0,0,0,0h-1.4c0,0-.1,0-.1-.1v-.9c0,0,0-.1.1-.1h4.4c0,0,.1,0,.1.1Z"/>
    <path class="st7" d="M62.7,54.5l-.2-.9s0,0,0,0h-1.8s0,0,0,0l-.2.9c0,0,0,0-.1,0h-1.2c0,0-.1,0,0-.1l1.8-6.3c0,0,0,0,.1,0h1.4c0,0,.1,0,.1,0l1.8,6.3c0,0,0,.1,0,.1h-1.2c0,0-.1,0-.1,0ZM60.8,52.6h1.3s0,0,0,0l-.7-2.7s0,0,0,0l-.7,2.7s0,0,0,0Z"/>
    <path class="st7" d="M67.6,54.5l-1-2.6s0,0,0,0h-.6s0,0,0,0v2.5c0,0,0,.1-.1.1h-1.1c0,0-.1,0-.1-.1v-6.3c0,0,0-.1.1-.1h2.4c1.2,0,2,.8,2,2s-.4,1.4-1.1,1.7c0,0,0,0,0,0l1.1,2.7c0,0,0,.1,0,.1h-1.2c0,0-.1,0-.1,0ZM65.9,49.3v1.6s0,0,0,0h.8c.5,0,.8-.3.8-.8s-.3-.8-.8-.8h-.8s0,0,0,0Z"/>
    <path class="st7" d="M69.6,54.5v-6.3c0,0,0-.1.1-.1h1.1c0,0,.1,0,.1.1v6.3c0,0,0,.1-.1.1h-1.1c0,0-.1,0-.1-.1Z"/>
    <path class="st7" d="M71.7,54.5v-6.3c0,0,0-.1.1-.1h1.2c0,0,.1,0,.1,0l1.9,3.7s0,0,0,0v-3.7c0,0,0-.1.1-.1h1.1c0,0,.1,0,.1.1v6.3c0,0,0,.1-.1.1h-1.2c0,0-.1,0-.1,0l-1.9-3.8s0,0,0,0v3.7c0,0,0,.1,0,.1h-1.1c0,0-.1,0-.1-.1Z"/>
    <path class="st7" d="M80.6,54.5l-.2-.9s0,0,0,0h-1.8s0,0,0,0l-.2.9c0,0,0,0-.1,0h-1.2c0,0-.1,0,0-.1l1.8-6.3c0,0,0,0,.1,0h1.4c0,0,.1,0,.1,0l1.8,6.3c0,0,0,.1,0,.1h-1.2c0,0-.1,0-.1,0ZM78.8,52.6h1.3s0,0,0,0l-.7-2.7s0,0,0,0l-.7,2.7s0,0,0,0Z"/>
  </g>
</svg>